<svg xmlns:svg="http://www.w3.org/2000/svg" xmlns="http://www.w3.org/2000/svg" version="1.1" x="0" y="0" viewBox="0 0 32 32" enable-background="new 0 0 32 32" xml:space="preserve" width="32" height="32"><g transform="translate(0.47939443,0.08978098)">
<path fill="white" d="M17.8 22.4C18.5 21.9 19 21 19 20c0-1.6-1.3-3-3-3-1.6 0-3 1.4-3 3 0 1 0.5 1.9 1.2 2.4C12.9 23.1 12 24.4 12 26v4c0 0.6 0.5 1 1 1h6c0.6 0 1-0.4 1-1v-4c0-1.6-0.9-2.9-2.2-3.6zM17.8 6.4C18.5 5.9 19 5 19 4 19 2.4 17.7 1 16 1 14.4 1 13 2.4 13 4 13 5 13.5 5.9 14.2 6.4 12.9 7.1 12 8.4 12 10v3c0 0.6 0.5 1 1 1h6c0.6 0 1-0.4 1-1V10C20 8.4 19.1 7.1 17.8 6.4ZM8.8 22.4C9.5 21.9 10 21 10 20 10 18.4 8.7 17 7 17 5.4 17 4 18.4 4 20 4 21 4.5 21.9 5.2 22.4 3.9 23.1 3 24.4 3 26v4c0 0.6 0.5 1 1 1h6c0.6 0 1-0.4 1-1v-4c0-1.6-0.9-2.9-2.2-3.6zM8.8 6.4C9.5 5.9 10 5 10 4 10 2.4 8.7 1 7 1 5.4 1 4 2.4 4 4 4 5 4.5 5.9 5.2 6.4 3.9 7.1 3 8.4 3 10v3c0 0.6 0.5 1 1 1h6c0.6 0 1-0.4 1-1V10C11 8.4 10.1 7.1 8.8 6.4ZM26.8 22.4C27.5 21.9 28 21 28 20c0-1.6-1.3-3-3-3-1.6 0-3 1.4-3 3 0 1 0.5 1.9 1.2 2.4C21.9 23.1 21 24.4 21 26v4c0 0.6 0.5 1 1 1h6c0.6 0 1-0.4 1-1v-4c0-1.6-0.9-2.9-2.2-3.6zM26.8 6.4C27.5 5.9 28 5 28 4 28 2.4 26.7 1 25 1 23.4 1 22 2.4 22 4 22 5 22.5 5.9 23.2 6.4 21.9 7.1 21 8.4 21 10v3c0 0.6 0.5 1 1 1h6c0.6 0 1-0.4 1-1V10C29 8.4 28.1 7.1 26.8 6.4Z"/></g></svg>